<svg xmlns="http://www.w3.org/2000/svg" viewBox="0 0 1200 520" role="img" aria-labelledby="title desc">
  <title id="title">Joycent model diagram placeholder</title>
  <desc id="desc">A placeholder architecture diagram showing accent reference, speaker reference, phone sequence, Joycent model, and speech output.</desc>
  <rect width="1200" height="520" fill="#f7fbf8"/>
  <rect x="46" y="46" width="1108" height="428" rx="24" fill="#ffffff" stroke="#d9e5df" stroke-width="3"/>
  <g font-family="Inter, Arial, sans-serif" fill="#17211b">
    <text x="600" y="104" text-anchor="middle" font-size="34" font-weight="800">Joycent Model Figure Placeholder</text>
    <text x="600" y="142" text-anchor="middle" font-size="18" fill="#60706a">Replace this SVG with the final model architecture figure</text>
  </g>
  <g font-family="Inter, Arial, sans-serif" font-size="22" font-weight="750">
    <rect x="96" y="218" width="230" height="76" rx="12" fill="#eef5f2" stroke="#b8cdc5" stroke-width="2"/>
    <text x="211" y="265" text-anchor="middle" fill="#1d7a6b">Accent Reference</text>
    <rect x="96" y="330" width="230" height="76" rx="12" fill="#f8f2df" stroke="#e0c984" stroke-width="2"/>
    <text x="211" y="377" text-anchor="middle" fill="#8b6513">Speaker Reference</text>
    <rect x="96" y="106" width="230" height="76" rx="12" fill="#f7ece9" stroke="#dca897" stroke-width="2"/>
    <text x="211" y="153" text-anchor="middle" fill="#b54630">Phone Sequence</text>
    <rect x="492" y="205" width="220" height="112" rx="18" fill="#1d7a6b"/>
    <text x="602" y="252" text-anchor="middle" fill="#ffffff">Joycent</text>
    <text x="602" y="285" text-anchor="middle" fill="#d8efe9" font-size="17">Acoustic Model</text>
    <rect x="874" y="224" width="230" height="76" rx="12" fill="#17211b"/>
    <text x="989" y="271" text-anchor="middle" fill="#ffffff">Generated Speech</text>
  </g>
  <g fill="none" stroke="#60706a" stroke-width="4" stroke-linecap="round" stroke-linejoin="round">
    <path d="M326 144 C392 144 416 230 492 237"/>
    <path d="M326 256 L492 256"/>
    <path d="M326 368 C398 368 416 290 492 282"/>
    <path d="M712 261 L874 261"/>
  </g>
  <g fill="#60706a">
    <path d="M486 237 l-14 -8 v16z"/>
    <path d="M486 256 l-14 -8 v16z"/>
    <path d="M486 282 l-14 -8 v16z"/>
    <path d="M868 261 l-14 -8 v16z"/>
  </g>
</svg>
